<svg width="591" height="84" viewBox="0 0 591 84" fill="none" xmlns="http://www.w3.org/2000/svg">
<path d="M5.22502 44.6843C7.42448 76.1535 27.2197 74.4616 51.7521 58.3886C55.8127 55.6816 67.8251 44.0075 67.3176 54.1589C66.3024 71.247 45.4921 84.1054 28.7424 83.0903C2.51799 81.7367 -5.09554 44.1767 3.19475 34.0253C4.71745 32.3334 5.05583 44.0075 5.22502 44.6843Z" fill="#101828"/>
<path d="M53.7816 7.46211C23.3275 -0.151416 18.7594 19.3054 26.3729 47.56C27.5572 52.2973 35.1707 67.3552 25.5269 63.633C9.62313 57.373 3.7015 33.6865 9.79232 17.9519C19.4361 -6.58062 57.5037 -2.18169 64.4405 8.81563C65.794 10.8459 54.4583 7.6313 53.7816 7.46211Z" fill="#101828"/>
<path d="M67.9936 66.8474C88.4656 42.9917 73.0693 30.1333 44.4763 24.3809C39.739 23.3657 22.82 23.3657 30.4336 16.429C43.1228 4.92409 66.9785 10.3382 78.3142 22.8582C95.9099 42.315 74.9304 74.461 61.9028 75.8145C59.5342 75.9837 67.4861 67.355 67.9936 66.8474Z" fill="#101828"/>
<path d="M57.6733 38.5931L39.0625 27.7649C36.6938 26.4114 33.6484 28.1033 33.6484 30.8104V52.4666C33.6484 55.1736 36.6938 57.0347 39.0625 55.512L57.6733 44.6839C60.042 43.3304 60.042 39.9466 57.6733 38.5931Z" fill="#9BC620"/>
<path d="M123.841 58.1894C120.388 58.1894 117.362 57.4083 114.764 55.8462C112.182 54.2676 110.283 52.097 109.066 49.3345C107.866 46.5719 107.504 43.5052 107.981 40.1343C108.442 36.7633 109.667 33.7048 111.656 30.9587C113.646 28.1962 116.162 26.0338 119.204 24.4717C122.246 22.8931 125.494 22.1038 128.947 22.1038C132.186 22.1038 135.047 22.8026 137.53 24.2004C140.013 25.5816 141.921 27.4973 143.253 29.9474L135.878 34.1405C135.138 32.7428 134.069 31.6411 132.671 30.8354C131.274 30.0296 129.679 29.6268 127.886 29.6268C124.926 29.6268 122.312 30.6298 120.043 32.6359C117.79 34.6256 116.45 37.1251 116.022 40.1343C115.595 43.1434 116.228 45.6511 117.921 47.6572C119.615 49.6469 121.942 50.6418 124.902 50.6418C126.694 50.6418 128.404 50.2471 130.032 49.4578C131.66 48.6521 133.049 47.5503 134.201 46.1526L140.367 50.3458C138.361 52.7794 135.911 54.6951 133.017 56.0928C130.139 57.4905 127.08 58.1894 123.841 58.1894ZM162.418 56.4381C160.132 57.6056 157.682 58.1894 155.068 58.1894C152.453 58.1894 150.167 57.6056 148.211 56.4381C146.27 55.2542 144.84 53.6345 143.919 51.579C143.014 49.5236 142.735 47.2297 143.08 44.6974C143.425 42.1815 144.346 39.8958 145.843 37.8404C147.339 35.7685 149.23 34.1488 151.516 32.9813C153.818 31.7973 156.276 31.2053 158.891 31.2053C161.505 31.2053 163.783 31.7973 165.723 32.9813C167.68 34.1488 169.11 35.7602 170.015 37.8157C170.936 39.8712 171.223 42.165 170.878 44.6974C170.533 47.2132 169.612 49.5071 168.116 51.579C166.619 53.6345 164.72 55.2542 162.418 56.4381ZM156.079 51.0611C157.888 51.0611 159.483 50.4527 160.864 49.2358C162.245 48.019 163.059 46.5062 163.306 44.6974C163.536 42.8721 163.133 41.3593 162.097 40.1589C161.061 38.9421 159.655 38.3337 157.879 38.3337C156.071 38.3337 154.476 38.9421 153.094 40.1589C151.729 41.3758 150.924 42.8886 150.677 44.6974C150.43 46.5062 150.817 48.019 151.836 49.2358C152.872 50.4527 154.286 51.0611 156.079 51.0611ZM192.362 31.2053C195.322 31.2053 197.574 32.1015 199.12 33.8939C200.666 35.6698 201.225 38.0377 200.797 40.9975L198.479 57.5728H191.104L193.126 43.4888C193.324 41.9266 193.036 40.6769 192.263 39.7396C191.49 38.8023 190.347 38.3337 188.835 38.3337C187.289 38.3337 185.965 38.7859 184.863 39.6903C183.778 40.5947 183.096 41.8033 182.816 43.3161L180.794 57.5728H173.419L177.069 31.822H184.444L184.074 34.3379C186.409 32.2495 189.172 31.2053 192.362 31.2053ZM215.103 38.531L213.771 47.9779C213.64 48.9645 213.813 49.7291 214.289 50.2718C214.783 50.798 215.556 51.0611 216.608 51.0611C217.677 51.0611 218.836 50.7569 220.086 50.1484L219.198 57.0794C217.57 57.8194 215.852 58.1894 214.043 58.1894C211.017 58.1894 208.863 57.3837 207.58 55.7722C206.298 54.1443 205.854 51.949 206.248 49.1865L207.778 38.531H203.881L204.843 31.822H208.69L209.578 25.4336H216.953L216.065 31.822H222.725L221.763 38.531H215.103ZM238.906 31.2053C240.813 31.2053 242.556 31.5507 244.135 32.2413C245.713 32.9319 247.012 33.8774 248.032 35.0778C249.068 36.2618 249.808 37.7006 250.252 39.3943C250.712 41.0715 250.803 42.8721 250.523 44.796C250.375 45.8484 250.211 46.6213 250.03 47.1146H230.84C231.087 48.5616 231.736 49.6962 232.788 50.5184C233.857 51.3406 235.206 51.7517 236.834 51.7517C238.198 51.7517 239.489 51.4804 240.706 50.9377C241.923 50.3951 242.926 49.7127 243.715 48.8905L248.007 53.1823C246.379 54.7609 244.496 55.9942 242.359 56.8821C240.237 57.7536 238.009 58.1894 235.674 58.1894C233.652 58.1894 231.802 57.8441 230.125 57.1534C228.464 56.4464 227.083 55.4926 225.981 54.2922C224.879 53.0919 224.082 51.6448 223.588 49.9511C223.095 48.2574 222.98 46.4568 223.243 44.5494C223.802 40.7509 225.578 37.5773 228.571 35.0285C231.563 32.4797 235.008 31.2053 238.906 31.2053ZM241.397 38.827C240.459 37.9884 239.292 37.569 237.894 37.569C236.497 37.569 235.222 37.9884 234.071 38.827C232.92 39.6656 232.057 40.792 231.481 42.2062H243.049C242.885 40.7756 242.334 39.6492 241.397 38.827ZM271.883 31.2053C274.843 31.2053 277.096 32.1015 278.642 33.8939C280.187 35.6698 280.746 38.0377 280.319 40.9975L278 57.5728H270.625L272.648 43.4888C272.845 41.9266 272.557 40.6769 271.785 39.7396C271.012 38.8023 269.869 38.3337 268.356 38.3337C266.81 38.3337 265.487 38.7859 264.385 39.6903C263.3 40.5947 262.617 41.8033 262.338 43.3161L260.315 57.5728H252.94L256.591 31.822H263.966L263.596 34.3379C265.931 32.2495 268.693 31.2053 271.883 31.2053ZM294.625 38.531L293.293 47.9779C293.161 48.9645 293.334 49.7291 293.811 50.2718C294.304 50.798 295.077 51.0611 296.129 51.0611C297.198 51.0611 298.358 50.7569 299.607 50.1484L298.719 57.0794C297.091 57.8194 295.373 58.1894 293.564 58.1894C290.539 58.1894 288.384 57.3837 287.102 55.7722C285.819 54.1443 285.375 51.949 285.77 49.1865L287.299 38.531H283.402L284.364 31.822H288.212L289.1 25.4336H296.475L295.587 31.822H302.247L301.285 38.531H294.625ZM326.986 58.1894C324.306 58.1894 321.708 57.6961 319.192 56.7095C316.676 55.7064 314.612 54.3745 313.001 52.7137L317.835 46.7693C319.085 48.1012 320.622 49.1783 322.448 50.0004C324.273 50.8062 326.106 51.2091 327.948 51.2091C329.559 51.2091 330.974 50.8884 332.19 50.2471C333.424 49.6058 334.098 48.7836 334.213 47.7806C334.262 47.3859 334.229 47.0324 334.114 46.7199C334.016 46.3911 333.802 46.0951 333.473 45.832C333.144 45.5689 332.823 45.3469 332.511 45.166C332.199 44.9687 331.73 44.7714 331.105 44.574C330.48 44.3767 329.971 44.2205 329.576 44.1054C329.181 43.9903 328.589 43.8341 327.8 43.6368C319.973 41.68 316.437 37.9719 317.194 32.5126C317.621 29.3883 319.2 26.8724 321.93 24.965C324.676 23.0575 328.063 22.1038 332.092 22.1038C334.673 22.1038 336.976 22.4984 338.998 23.2877C341.037 24.0606 342.64 25.0965 343.808 26.3956L339.319 32.3646C338.447 31.3945 337.255 30.6052 335.742 29.9967C334.246 29.3883 332.675 29.0841 331.031 29.0841C329.469 29.0841 328.153 29.3801 327.085 29.9721C326.016 30.5476 325.416 31.2958 325.284 32.2166C325.202 32.7593 325.301 33.2526 325.58 33.6966C325.876 34.1405 326.32 34.5187 326.912 34.8312C327.52 35.1436 328.145 35.4067 328.787 35.6205C329.444 35.8342 330.209 36.0316 331.08 36.2124C331.656 36.344 332.199 36.4838 332.708 36.6318C333.235 36.7633 333.933 36.9935 334.805 37.3224C335.676 37.6348 336.449 37.9801 337.124 38.3583C337.814 38.7201 338.538 39.2052 339.294 39.8136C340.05 40.4056 340.667 41.0551 341.144 41.7622C341.621 42.4528 341.974 43.2914 342.205 44.2781C342.451 45.2482 342.501 46.2924 342.353 47.4106C342.04 49.4989 341.152 51.3735 339.689 53.0343C338.242 54.6787 336.408 55.9531 334.188 56.8575C331.968 57.7454 329.568 58.1894 326.986 58.1894ZM364.774 31.822H373.012L356.535 61.7166C355.532 63.5911 354.208 65.0711 352.564 66.1563C350.92 67.2416 349.201 67.7843 347.409 67.7843C346.192 67.7843 344.967 67.5458 343.734 67.069C342.501 66.5921 341.465 65.9508 340.626 65.1451L344.326 59.398C345.049 60.2366 345.987 60.6559 347.138 60.6559C348.42 60.6559 349.448 60.0146 350.221 58.732L351.183 57.1781L344.474 31.822H352.909L356.585 48.0765L364.774 31.822ZM391.363 31.2053C394.323 31.2053 396.576 32.1015 398.121 33.8939C399.667 35.6698 400.226 38.0377 399.799 40.9975L397.48 57.5728H390.105L392.128 43.4888C392.325 41.9266 392.037 40.6769 391.264 39.7396C390.491 38.8023 389.349 38.3337 387.836 38.3337C386.29 38.3337 384.966 38.7859 383.865 39.6903C382.779 40.5947 382.097 41.8033 381.817 43.3161L379.795 57.5728H372.42L376.07 31.822H383.445L383.075 34.3379C385.41 32.2495 388.173 31.2053 391.363 31.2053ZM426.758 21.1912H434.133L429.027 57.5728H421.652L421.997 55.0075C419.613 57.1288 416.867 58.1894 413.759 58.1894C411.441 58.1894 409.41 57.6056 407.667 56.4381C405.94 55.2542 404.682 53.6345 403.893 51.579C403.12 49.5071 402.906 47.2132 403.252 44.6974C403.778 40.866 405.414 37.6595 408.16 35.0778C410.923 32.4962 414.072 31.2053 417.607 31.2053C420.665 31.2053 423.107 32.2495 424.933 34.3379L426.758 21.1912ZM416.3 51.0611C418.01 51.0611 419.531 50.502 420.863 49.3838C422.211 48.2492 423.066 46.8186 423.428 45.092L423.527 44.2781C423.675 42.5515 423.231 41.1291 422.195 40.0109C421.175 38.8928 419.802 38.3337 418.076 38.3337C416.267 38.3337 414.672 38.9421 413.291 40.1589C411.909 41.3758 411.112 42.8886 410.898 44.6974C410.651 46.5226 411.038 48.0437 412.057 49.2605C413.077 50.4609 414.491 51.0611 416.3 51.0611ZM442.642 28.5168C441.36 28.5168 440.34 28.0893 439.584 27.2342C438.844 26.3627 438.556 25.2774 438.721 23.9784C438.918 22.6958 439.51 21.6269 440.497 20.7718C441.5 19.9168 442.642 19.4892 443.925 19.4892C445.208 19.4892 446.219 19.9168 446.959 20.7718C447.715 21.6269 448.011 22.6958 447.847 23.9784C447.682 25.2774 447.099 26.3627 446.096 27.2342C445.093 28.0893 443.942 28.5168 442.642 28.5168ZM434.873 57.5728L438.523 31.822H445.898L442.248 57.5728H434.873ZM460.377 58.1894C457.762 58.1894 455.477 57.6056 453.52 56.4381C451.58 55.2542 450.149 53.6345 449.228 51.579C448.324 49.5236 448.044 47.2297 448.39 44.6974C448.735 42.1815 449.656 39.8958 451.152 37.8404C452.648 35.7685 454.539 34.1488 456.825 32.9813C459.127 31.7973 461.586 31.2053 464.2 31.2053C466.782 31.2053 469.026 31.7809 470.934 32.9319C472.858 34.0665 474.272 35.6287 475.176 37.6184L468.196 41.5155C467.801 40.5453 467.16 39.7725 466.272 39.197C465.4 38.6214 464.373 38.3337 463.189 38.3337C461.38 38.3337 459.785 38.9421 458.404 40.1589C457.039 41.3758 456.233 42.8886 455.986 44.6974C455.74 46.5062 456.126 48.019 457.146 49.2358C458.182 50.4527 459.596 51.0611 461.388 51.0611C462.572 51.0611 463.69 50.7733 464.743 50.1978C465.812 49.6222 466.691 48.8494 467.382 47.8792L473.203 51.7517C471.723 53.7578 469.857 55.3364 467.604 56.4875C465.351 57.6221 462.942 58.1894 460.377 58.1894ZM497.942 31.822H505.317L501.692 57.5728H494.317L494.662 55.0075C492.278 57.1288 489.532 58.1894 486.424 58.1894C484.105 58.1894 482.074 57.6056 480.331 56.4381C478.605 55.2542 477.347 53.6345 476.557 51.579C475.785 49.5071 475.571 47.2132 475.916 44.6974C476.442 40.866 478.079 37.6595 480.825 35.0778C483.587 32.4962 486.736 31.2053 490.271 31.2053C493.346 31.2053 495.788 32.266 497.597 34.3872L497.942 31.822ZM488.964 51.0611C490.757 51.0611 492.335 50.4527 493.7 49.2358C495.081 48.019 495.895 46.5062 496.142 44.6974C496.389 42.8721 496.002 41.3593 494.983 40.1589C493.963 38.9421 492.549 38.3337 490.74 38.3337C488.931 38.3337 487.336 38.9421 485.955 40.1589C484.574 41.3758 483.776 42.8886 483.562 44.6974C483.316 46.5226 483.702 48.0437 484.722 49.2605C485.741 50.4609 487.155 51.0611 488.964 51.0611ZM519.821 38.531L518.489 47.9779C518.357 48.9645 518.53 49.7291 519.007 50.2718C519.5 50.798 520.273 51.0611 521.325 51.0611C522.394 51.0611 523.553 50.7569 524.803 50.1484L523.915 57.0794C522.287 57.8194 520.569 58.1894 518.76 58.1894C515.735 58.1894 513.58 57.3837 512.298 55.7722C511.015 54.1443 510.571 51.949 510.966 49.1865L512.495 38.531H508.598L509.56 31.822H513.408L514.296 25.4336H521.671L520.783 31.822H527.442L526.48 38.531H519.821ZM543.623 31.2053C545.53 31.2053 547.273 31.5507 548.852 32.2413C550.431 32.9319 551.73 33.8774 552.749 35.0778C553.785 36.2618 554.525 37.7006 554.969 39.3943C555.43 41.0715 555.52 42.8721 555.24 44.796C555.092 45.8484 554.928 46.6213 554.747 47.1146H535.557C535.804 48.5616 536.454 49.6962 537.506 50.5184C538.575 51.3406 539.923 51.7517 541.551 51.7517C542.916 51.7517 544.207 51.4804 545.424 50.9377C546.64 50.3951 547.643 49.7127 548.433 48.8905L552.725 53.1823C551.097 54.7609 549.214 55.9942 547.076 56.8821C544.955 57.7536 542.727 58.1894 540.392 58.1894C538.369 58.1894 536.519 57.8441 534.842 57.1534C533.181 56.4464 531.8 55.4926 530.698 54.2922C529.597 53.0919 528.799 51.6448 528.306 49.9511C527.812 48.2574 527.697 46.4568 527.96 44.5494C528.519 40.7509 530.295 37.5773 533.288 35.0285C536.281 32.4797 539.726 31.2053 543.623 31.2053ZM546.114 38.827C545.177 37.9884 544.009 37.569 542.612 37.569C541.214 37.569 539.94 37.9884 538.789 38.827C537.637 39.6656 536.774 40.792 536.199 42.2062H547.767C547.602 40.7756 547.051 39.6492 546.114 38.827Z" fill="#101828"/>
</svg>
