<svg width="554" height="84" viewBox="0 0 554 84" fill="none" xmlns="http://www.w3.org/2000/svg">
<path d="M5.22502 44.6843C7.42448 76.1535 27.2197 74.4616 51.7521 58.3886C55.8127 55.6816 67.8251 44.0075 67.3176 54.1589C66.3024 71.247 45.4921 84.1054 28.7424 83.0903C2.51799 81.7367 -5.09554 44.1767 3.19475 34.0253C4.71745 32.3334 5.05583 44.0075 5.22502 44.6843Z" fill="#9BC620"/>
<path d="M53.7816 7.46211C23.3275 -0.151416 18.7594 19.3054 26.3729 47.56C27.5572 52.2973 35.1707 67.3552 25.5269 63.633C9.62313 57.373 3.7015 33.6865 9.79232 17.9519C19.4361 -6.58062 57.5037 -2.18169 64.4405 8.81563C65.794 10.8459 54.4583 7.6313 53.7816 7.46211Z" fill="#9BC620"/>
<path d="M67.9936 66.8474C88.4656 42.9917 73.0693 30.1333 44.4763 24.3809C39.739 23.3657 22.82 23.3657 30.4336 16.429C43.1228 4.92409 66.9785 10.3382 78.3142 22.8582C95.9099 42.315 74.9304 74.461 61.9028 75.8145C59.5342 75.9837 67.4861 67.355 67.9936 66.8474Z" fill="#9BC620"/>
<path d="M57.6733 38.5931L39.0625 27.7649C36.6938 26.4114 33.6484 28.1033 33.6484 30.8104V52.4666C33.6484 55.1736 36.6938 57.0347 39.0625 55.512L57.6733 44.6839C60.042 43.3304 60.042 39.9466 57.6733 38.5931Z" fill="white"/>
<path d="M541.557 29.1421C543.465 29.1421 545.208 29.4874 546.786 30.178C548.365 30.8687 549.664 31.8142 550.683 33.0146C551.719 34.1985 552.459 35.6373 552.903 37.331C553.364 39.0083 553.454 40.8089 553.175 42.7328C553.027 43.7852 552.862 44.558 552.681 45.0513H533.492C533.738 46.4984 534.388 47.633 535.44 48.4552C536.509 49.2773 537.857 49.6884 539.485 49.6884C540.85 49.6884 542.141 49.4171 543.358 48.8745C544.575 48.3318 545.578 47.6494 546.367 46.8272L550.659 51.119C549.031 52.6976 547.148 53.9309 545.01 54.8189C542.889 55.6904 540.661 56.1261 538.326 56.1261C536.303 56.1261 534.454 55.7808 532.776 55.0902C531.115 54.3831 529.734 53.4294 528.632 52.229C527.531 51.0286 526.733 49.5816 526.24 47.8879C525.747 46.1942 525.631 44.3936 525.895 42.4861C526.454 38.6876 528.23 35.514 531.222 32.9652C534.215 30.4165 537.66 29.1421 541.557 29.1421ZM544.048 36.7637C543.111 35.9251 541.944 35.5058 540.546 35.5058C539.148 35.5058 537.874 35.9251 536.723 36.7637C535.572 37.6024 534.708 38.7287 534.133 40.1429H545.701C545.537 38.7123 544.986 37.5859 544.048 36.7637Z" fill="white"/>
<path d="M517.755 36.4675L516.423 45.9144C516.292 46.901 516.464 47.6656 516.941 48.2083C517.434 48.7345 518.207 48.9976 519.26 48.9976C520.328 48.9976 521.488 48.6933 522.737 48.0849L521.849 55.0159C520.222 55.7559 518.503 56.1259 516.694 56.1259C513.669 56.1259 511.515 55.3201 510.232 53.7087C508.949 52.0807 508.505 49.8855 508.9 47.123L510.429 36.4675H506.532L507.494 29.7585H511.342L512.23 23.3701H519.605L518.717 29.7585H525.377L524.415 36.4675H517.755Z" fill="white"/>
<path d="M495.877 29.7587H503.252L499.626 55.5095H492.251L492.596 52.9443C490.212 55.0655 487.466 56.1261 484.358 56.1261C482.039 56.1261 480.009 55.5424 478.265 54.3749C476.539 53.1909 475.281 51.5712 474.492 49.5158C473.719 47.4439 473.505 45.15 473.85 42.6341C474.377 38.8027 476.013 35.5962 478.759 33.0146C481.521 30.4329 484.67 29.1421 488.206 29.1421C491.281 29.1421 493.723 30.2027 495.531 32.3239L495.877 29.7587ZM486.898 48.9978C488.691 48.9978 490.269 48.3894 491.634 47.1726C493.015 45.9557 493.829 44.4429 494.076 42.6341C494.323 40.8089 493.936 39.296 492.917 38.0957C491.897 36.8788 490.483 36.2704 488.674 36.2704C486.866 36.2704 485.271 36.8788 483.889 38.0957C482.508 39.3125 481.71 40.8253 481.497 42.6341C481.25 44.4594 481.636 45.9804 482.656 47.1972C483.675 48.3976 485.09 48.9978 486.898 48.9978Z" fill="white"/>
<path d="M458.311 56.1261C455.697 56.1261 453.411 55.5424 451.454 54.3749C449.514 53.1909 448.083 51.5712 447.162 49.5158C446.258 47.4603 445.978 45.1664 446.324 42.6341C446.669 40.1182 447.59 37.8326 449.086 35.7771C450.583 33.7052 452.474 32.0855 454.759 30.918C457.061 29.7341 459.52 29.1421 462.134 29.1421C464.716 29.1421 466.961 29.7176 468.868 30.8687C470.792 32.0033 472.206 33.5654 473.111 35.5551L466.13 39.4523C465.736 38.4821 465.094 37.7092 464.206 37.1337C463.335 36.5582 462.307 36.2704 461.123 36.2704C459.314 36.2704 457.719 36.8788 456.338 38.0957C454.973 39.3125 454.167 40.8253 453.921 42.6341C453.674 44.4429 454.061 45.9557 455.08 47.1726C456.116 48.3894 457.53 48.9978 459.322 48.9978C460.506 48.9978 461.625 48.71 462.677 48.1345C463.746 47.559 464.626 46.7861 465.316 45.816L471.137 49.6884C469.657 51.6946 467.791 53.2732 465.538 54.4242C463.285 55.5588 460.876 56.1261 458.311 56.1261Z" fill="white"/>
<path d="M440.577 26.4533C439.294 26.4533 438.275 26.0258 437.518 25.1707C436.778 24.2992 436.491 23.2139 436.655 21.9149C436.852 20.6323 437.444 19.5635 438.431 18.7084C439.434 17.8533 440.577 17.4258 441.859 17.4258C443.142 17.4258 444.153 17.8533 444.893 18.7084C445.65 19.5635 445.946 20.6323 445.781 21.9149C445.617 23.2139 445.033 24.2992 444.03 25.1707C443.027 26.0258 441.876 26.4533 440.577 26.4533ZM432.807 55.5093L436.458 29.7585H443.833L440.182 55.5093H432.807Z" fill="white"/>
<path d="M424.692 19.1279H432.067L426.961 55.5095H419.586L419.932 52.9443C417.547 55.0655 414.801 56.1262 411.693 56.1262C409.375 56.1262 407.344 55.5424 405.601 54.3749C403.874 53.191 402.616 51.5713 401.827 49.5158C401.054 47.4439 400.841 45.15 401.186 42.6341C401.712 38.8028 403.348 35.5963 406.094 33.0146C408.857 30.4329 412.006 29.1421 415.541 29.1421C418.6 29.1421 421.042 30.1863 422.867 32.2746L424.692 19.1279ZM414.234 48.9978C415.944 48.9978 417.465 48.4387 418.797 47.3206C420.145 46.186 421 44.7554 421.362 43.0288L421.461 42.2148C421.609 40.4882 421.165 39.0659 420.129 37.9477C419.109 36.8295 417.736 36.2704 416.01 36.2704C414.201 36.2704 412.606 36.8789 411.225 38.0957C409.843 39.3125 409.046 40.8253 408.832 42.6341C408.585 44.4594 408.972 45.9804 409.991 47.1973C411.011 48.3976 412.425 48.9978 414.234 48.9978Z" fill="white"/>
<path d="M389.297 29.1421C392.257 29.1421 394.51 30.0383 396.055 31.8306C397.601 33.6065 398.16 35.9744 397.733 38.9343L395.414 55.5095H388.039L390.062 41.4255C390.259 39.8634 389.971 38.6136 389.198 37.6763C388.426 36.7391 387.283 36.2704 385.77 36.2704C384.224 36.2704 382.9 36.7226 381.799 37.627C380.713 38.5314 380.031 39.74 379.752 41.2528L377.729 55.5095H370.354L374.004 29.7587H381.379L381.009 32.2746C383.344 30.1863 386.107 29.1421 389.297 29.1421Z" fill="white"/>
<path d="M362.708 29.7583H370.946L354.469 59.6529C353.466 61.5274 352.143 63.0074 350.498 64.0927C348.854 65.1779 347.135 65.7206 345.343 65.7206C344.126 65.7206 342.901 65.4821 341.668 65.0053C340.435 64.5284 339.399 63.8871 338.56 63.0814L342.26 57.3343C342.983 58.1729 343.921 58.5923 345.072 58.5923C346.354 58.5923 347.382 57.951 348.155 56.6683L349.117 55.1144L342.408 29.7583H350.843L354.519 46.0129L362.708 29.7583Z" fill="white"/>
<path d="M324.92 56.1261C322.24 56.1261 319.641 55.6328 317.126 54.6462C314.61 53.6431 312.546 52.3112 310.935 50.6504L315.769 44.706C317.019 46.038 318.556 47.115 320.381 47.9372C322.207 48.7429 324.04 49.1458 325.882 49.1458C327.493 49.1458 328.907 48.8252 330.124 48.1838C331.358 47.5425 332.032 46.7204 332.147 45.7173C332.196 45.3227 332.163 44.9691 332.048 44.6567C331.95 44.3278 331.736 44.0318 331.407 43.7687C331.078 43.5056 330.757 43.2836 330.445 43.1028C330.133 42.9054 329.664 42.7081 329.039 42.5108C328.414 42.3135 327.904 42.1572 327.51 42.0421C327.115 41.927 326.523 41.7708 325.734 41.5735C317.907 39.6167 314.371 35.9087 315.128 30.4494C315.555 27.3251 317.134 24.8092 319.863 22.9017C322.61 20.9943 325.997 20.0405 330.026 20.0405C332.607 20.0405 334.909 20.4352 336.932 21.2245C338.971 21.9973 340.574 23.0333 341.742 24.3323L337.253 30.3014C336.381 29.3312 335.189 28.5419 333.676 27.9335C332.18 27.3251 330.609 27.0209 328.965 27.0209C327.403 27.0209 326.087 27.3168 325.019 27.9088C323.95 28.4843 323.35 29.2325 323.218 30.1534C323.136 30.696 323.234 31.1893 323.514 31.6333C323.81 32.0773 324.254 32.4555 324.846 32.7679C325.454 33.0803 326.079 33.3434 326.72 33.5572C327.378 33.771 328.143 33.9683 329.014 34.1492C329.59 34.2807 330.133 34.4205 330.642 34.5685C331.168 34.7 331.867 34.9303 332.739 35.2591C333.61 35.5716 334.383 35.9169 335.057 36.2951C335.748 36.6568 336.472 37.1419 337.228 37.7503C337.984 38.3423 338.601 38.9918 339.078 39.6989C339.555 40.3896 339.908 41.2282 340.139 42.2148C340.385 43.185 340.434 44.2291 340.286 45.3473C339.974 47.4357 339.086 49.3102 337.623 50.971C336.176 52.6154 334.342 53.8898 332.122 54.7942C329.902 55.6822 327.502 56.1261 324.92 56.1261Z" fill="white"/>
<path d="M292.559 36.4675L291.227 45.9144C291.095 46.901 291.268 47.6656 291.745 48.2083C292.238 48.7345 293.011 48.9976 294.063 48.9976C295.132 48.9976 296.291 48.6933 297.541 48.0849L296.653 55.0159C295.025 55.7559 293.307 56.1259 291.498 56.1259C288.472 56.1259 286.318 55.3201 285.036 53.7087C283.753 52.0807 283.309 49.8855 283.704 47.123L285.233 36.4675H281.336L282.298 29.7585H286.146L287.034 23.3701H294.409L293.521 29.7585H300.18L299.218 36.4675H292.559Z" fill="white"/>
<path d="M269.818 29.1421C272.777 29.1421 275.03 30.0383 276.576 31.8306C278.122 33.6065 278.681 35.9744 278.253 38.9343L275.935 55.5095H268.56L270.582 41.4255C270.78 39.8634 270.492 38.6136 269.719 37.6763C268.946 36.7391 267.803 36.2704 266.29 36.2704C264.745 36.2704 263.421 36.7226 262.319 37.627C261.234 38.5314 260.552 39.74 260.272 41.2528L258.249 55.5095H250.875L254.525 29.7587H261.9L261.53 32.2746C263.865 30.1863 266.628 29.1421 269.818 29.1421Z" fill="white"/>
<path d="M236.839 29.1421C238.747 29.1421 240.49 29.4874 242.068 30.178C243.647 30.8687 244.946 31.8142 245.966 33.0146C247.002 34.1985 247.742 35.6373 248.186 37.331C248.646 39.0083 248.736 40.8089 248.457 42.7328C248.309 43.7852 248.144 44.558 247.964 45.0513H228.774C229.02 46.4984 229.67 47.633 230.722 48.4552C231.791 49.2773 233.14 49.6884 234.768 49.6884C236.132 49.6884 237.423 49.4171 238.64 48.8745C239.857 48.3318 240.86 47.6494 241.649 46.8272L245.941 51.119C244.313 52.6976 242.43 53.9309 240.293 54.8189C238.171 55.6904 235.943 56.1261 233.608 56.1261C231.586 56.1261 229.736 55.7808 228.058 55.0902C226.398 54.3831 225.016 53.4294 223.915 52.229C222.813 51.0286 222.015 49.5816 221.522 47.8879C221.029 46.1942 220.914 44.3936 221.177 42.4861C221.736 38.6876 223.512 35.514 226.505 32.9652C229.497 30.4165 232.942 29.1421 236.839 29.1421ZM239.331 36.7637C238.393 35.9251 237.226 35.5058 235.828 35.5058C234.43 35.5058 233.156 35.9251 232.005 36.7637C230.854 37.6024 229.991 38.7287 229.415 40.1429H240.983C240.819 38.7123 240.268 37.5859 239.331 36.7637Z" fill="white"/>
<path d="M213.037 36.4675L211.705 45.9144C211.574 46.901 211.746 47.6656 212.223 48.2083C212.717 48.7345 213.489 48.9976 214.542 48.9976C215.611 48.9976 216.77 48.6933 218.02 48.0849L217.132 55.0159C215.504 55.7559 213.785 56.1259 211.977 56.1259C208.951 56.1259 206.797 55.3201 205.514 53.7087C204.232 52.0807 203.788 49.8855 204.182 47.123L205.712 36.4675H201.814L202.776 29.7585H206.624L207.512 23.3701H214.887L213.999 29.7585H220.659L219.697 36.4675H213.037Z" fill="white"/>
<path d="M190.296 29.1421C193.255 29.1421 195.508 30.0383 197.054 31.8306C198.6 33.6065 199.159 35.9744 198.731 38.9343L196.413 55.5095H189.038L191.06 41.4255C191.258 39.8634 190.97 38.6136 190.197 37.6763C189.424 36.7391 188.281 36.2704 186.768 36.2704C185.223 36.2704 183.899 36.7226 182.797 37.627C181.712 38.5314 181.03 39.74 180.75 41.2528L178.728 55.5095H171.353L175.003 29.7587H182.378L182.008 32.2746C184.343 30.1863 187.106 29.1421 190.296 29.1421Z" fill="white"/>
<path d="M160.352 54.3749C158.066 55.5424 155.616 56.1261 153.002 56.1261C150.387 56.1261 148.101 55.5424 146.145 54.3749C144.204 53.1909 142.774 51.5712 141.853 49.5158C140.948 47.4603 140.669 45.1664 141.014 42.6341C141.36 40.1182 142.28 37.8326 143.777 35.7771C145.273 33.7052 147.164 32.0855 149.45 30.918C151.752 29.7341 154.21 29.1421 156.825 29.1421C159.439 29.1421 161.717 29.7341 163.657 30.918C165.614 32.0855 167.045 33.697 167.949 35.7524C168.87 37.8079 169.158 40.1018 168.812 42.6341C168.467 45.15 167.546 47.4439 166.05 49.5158C164.553 51.5712 162.654 53.1909 160.352 54.3749ZM154.013 48.9978C155.822 48.9978 157.417 48.3894 158.798 47.1726C160.179 45.9557 160.993 44.4429 161.24 42.6341C161.47 40.8089 161.067 39.296 160.031 38.0957C158.995 36.8788 157.589 36.2704 155.814 36.2704C154.005 36.2704 152.41 36.8788 151.028 38.0957C149.664 39.3125 148.858 40.8253 148.611 42.6341C148.365 44.4429 148.751 45.9557 149.77 47.1726C150.806 48.3894 152.221 48.9978 154.013 48.9978Z" fill="white"/>
<path d="M121.775 56.1261C118.322 56.1261 115.296 55.3451 112.698 53.7829C110.117 52.2043 108.217 50.0338 107.001 47.2712C105.8 44.5087 105.438 41.4419 105.915 38.071C106.376 34.7 107.601 31.6415 109.59 28.8954C111.58 26.1329 114.096 23.9706 117.138 22.4084C120.18 20.8298 123.428 20.0405 126.881 20.0405C130.12 20.0405 132.982 20.7394 135.465 22.1371C137.948 23.5184 139.855 25.434 141.187 27.8842L133.812 32.0773C133.072 30.6796 132.003 29.5778 130.605 28.7721C129.208 27.9664 127.613 27.5635 125.82 27.5635C122.86 27.5635 120.246 28.5666 117.977 30.5727C115.724 32.5624 114.384 35.0618 113.956 38.071C113.529 41.0802 114.162 43.5878 115.855 45.594C117.549 47.5837 119.876 48.5785 122.836 48.5785C124.628 48.5785 126.338 48.1838 127.966 47.3946C129.594 46.5888 130.984 45.4871 132.135 44.0894L138.301 48.2825C136.295 50.7162 133.845 52.6319 130.951 54.0296C128.073 55.4273 125.015 56.1261 121.775 56.1261Z" fill="white"/>
</svg>
