<svg width="512" height="512" viewBox="0 0 512 512" fill="none" xmlns="http://www.w3.org/2000/svg">
<rect width="512" height="512" rx="130" fill="#101828"/>
<path d="M92.8371 269.143C102.431 406.404 188.772 399.024 295.777 328.918C313.488 317.11 365.883 266.191 363.669 310.469C359.242 385.003 268.472 441.088 195.414 436.66C81.0297 430.757 47.8214 266.929 83.9816 222.651C90.6232 215.271 92.0992 266.191 92.8371 269.143Z" fill="#9BC620"/>
<path d="M304.629 106.789C171.795 73.5808 151.87 158.446 185.079 281.686C190.244 302.349 223.453 368.028 181.389 351.793C112.02 324.488 86.1917 221.173 112.758 152.543C154.822 45.5382 320.864 64.7252 351.12 112.693C357.024 121.548 307.58 107.527 304.629 106.789Z" fill="#9BC620"/>
<path d="M366.618 365.813C455.912 261.761 388.757 205.675 264.041 180.585C243.378 176.157 169.582 176.157 202.79 145.9C258.138 95.719 362.19 119.334 411.634 173.943C488.382 258.809 396.875 399.022 340.051 404.925C329.72 405.663 364.404 368.027 366.618 365.813Z" fill="#9BC620"/>
<path d="M321.604 242.575L240.428 195.345C230.096 189.441 216.813 196.821 216.813 208.628V303.087C216.813 314.895 230.096 323.012 240.428 316.371L321.604 269.141C331.935 263.237 331.935 248.478 321.604 242.575Z" fill="white"/>
</svg>
